<svg width="20" height="21" viewBox="0 0 20 21" fill="none" xmlns="http://www.w3.org/2000/svg">
<path d="M15.4191 10.5C15.4191 10.7302 15.2325 10.9168 15.0023 10.9168C14.7721 10.9168 14.5854 10.7302 14.5854 10.5C14.5854 10.2698 14.7721 10.0831 15.0023 10.0831C15.2325 10.0831 15.4191 10.2698 15.4191 10.5" stroke="#323232" stroke-width="1.25" stroke-linecap="round" stroke-linejoin="round"/>
<path d="M10.4169 10.5C10.4169 10.7302 10.2303 10.9168 10.0001 10.9168C9.76988 10.9168 9.58325 10.7302 9.58325 10.5C9.58325 10.2698 9.76988 10.0831 10.0001 10.0831C10.2303 10.0831 10.4169 10.2698 10.4169 10.5" stroke="#323232" stroke-width="1.25" stroke-linecap="round" stroke-linejoin="round"/>
<path d="M5.41474 10.5C5.41474 10.7302 5.22811 10.9168 4.99789 10.9168C4.76768 10.9168 4.58105 10.7302 4.58105 10.5C4.58105 10.2698 4.76768 10.0831 4.99789 10.0831C5.22811 10.0831 5.41474 10.2698 5.41474 10.5" stroke="#323232" stroke-width="1.25" stroke-linecap="round" stroke-linejoin="round"/>
</svg>
