<svg width="24" height="24" viewBox="0 0 24 24" fill="none" xmlns="http://www.w3.org/2000/svg">
<path d="M13.53 7.52002L9.47 10.56" stroke="#323232" stroke-width="1.5" stroke-linecap="round" stroke-linejoin="round"/>
<path d="M16.4048 4.64216C17.1983 5.4357 17.1983 6.7223 16.4048 7.51584C15.6113 8.30938 14.3247 8.30938 13.5311 7.51584C12.7376 6.72229 12.7376 5.4357 13.5311 4.64216C14.3247 3.84861 15.6113 3.84861 16.4048 4.64216" stroke="#323232" stroke-width="1.5" stroke-linecap="round" stroke-linejoin="round"/>
<path d="M13.53 16.48L9.47 13.44" stroke="#323232" stroke-width="1.5" stroke-linecap="round" stroke-linejoin="round"/>
<path d="M16.4048 16.4842C17.1983 17.2777 17.1983 18.5643 16.4048 19.3579C15.6113 20.1514 14.3247 20.1514 13.5311 19.3579C12.7376 18.5643 12.7376 17.2777 13.5311 16.4842C14.3247 15.6907 15.6113 15.6907 16.4048 16.4842" stroke="#323232" stroke-width="1.5" stroke-linecap="round" stroke-linejoin="round"/>
<path d="M9.46543 10.5646C10.2582 11.3574 10.2582 12.6427 9.46543 13.4355C8.67267 14.2282 7.38734 14.2282 6.59458 13.4355C5.80182 12.6427 5.80182 11.3574 6.59458 10.5646C7.38734 9.77184 8.67267 9.77184 9.46543 10.5646" stroke="#323232" stroke-width="1.5" stroke-linecap="round" stroke-linejoin="round"/>
</svg>
