<?xml version="1.0" standalone="no"?>
<!DOCTYPE svg PUBLIC "-//W3C//DTD SVG 20010904//EN"
 "http://www.w3.org/TR/2001/REC-SVG-20010904/DTD/svg10.dtd">
<svg version="1.0" xmlns="http://www.w3.org/2000/svg"
 width="172.000000pt" height="171.000000pt" viewBox="0 0 172.000000 171.000000"
 preserveAspectRatio="xMidYMid meet">
<metadata>
Created by potrace 1.10, written by Peter Selinger 2001-2011
</metadata>
<g transform="translate(0.000000,171.000000) scale(0.050000,-0.050000)"
fill="#c1c1c1" stroke="none">
<path d="M1620 3370 c0 -47 7 -50 100 -50 93 0 100 3 100 50 0 47 -7 50 -100
50 -93 0 -100 -3 -100 -50z"/>
<path d="M1245 3358 c-66 -19 -79 -45 -47 -95 13 -21 26 -22 58 -5 23 12 59
22 82 22 48 0 66 25 50 68 -14 35 -46 38 -143 10z"/>
<path d="M2057 3360 c-2 -11 -4 -30 -5 -43 -3 -37 184 -77 197 -42 20 52 12
63 -64 84 -94 26 -124 26 -128 1z"/>
<path d="M855 3188 c-66 -43 -73 -54 -54 -90 20 -37 26 -38 65 -12 24 15 64
39 89 52 37 19 42 31 25 63 -27 49 -33 48 -125 -13z"/>
<path d="M2461 3202 c-31 -58 134 -161 174 -108 40 54 40 53 -139 142 -7 3
-23 -12 -35 -34z"/>
<path d="M513 2923 c-71 -73 -73 -77 -37 -109 37 -34 164 58 164 120 0 67 -55
62 -127 -11z"/>
<path d="M2824 2976 c-37 -37 -29 -63 42 -133 64 -62 68 -63 100 -27 43 47
-97 205 -142 160z"/>
<path d="M238 2569 c-47 -88 -39 -127 25 -129 42 -1 112 169 80 194 -49 37
-53 34 -105 -65z"/>
<path d="M3097 2634 c-32 -25 38 -195 80 -194 64 2 72 41 23 129 -54 100 -55
101 -103 65z"/>
<path d="M1560 2408 c-474 -205 -213 -913 283 -765 297 89 388 468 164 681
-118 111 -303 146 -447 84z m323 -123 c125 -74 173 -275 97 -400 -157 -259
-560 -154 -560 146 0 236 256 376 463 254z"/>
<path d="M93 2243 c-4 -7 -14 -40 -21 -73 -8 -33 -19 -76 -24 -95 -8 -27 1
-35 37 -35 45 0 95 92 95 175 0 23 -76 48 -87 28z"/>
<path d="M3295 2245 c-41 -9 -42 -27 -14 -130 19 -69 68 -99 103 -64 38 38
-39 206 -89 194z"/>
<path d="M20 1710 c0 -60 7 -110 15 -110 75 2 105 220 30 220 -41 0 -45 -9
-45 -110z"/>
<path d="M3340 1722 c0 -81 7 -99 40 -108 36 -9 40 0 40 98 0 95 -5 108 -40
108 -35 0 -40 -13 -40 -98z"/>
<path d="M1295 1454 c-172 -55 -302 -225 -291 -380 9 -125 79 -121 100 6 33
194 135 267 392 280 191 10 194 11 194 60 0 59 -249 80 -395 34z"/>
<path d="M2141 1451 c-15 -17 -22 -64 -18 -111 l8 -80 -105 0 c-100 0 -106 -3
-106 -50 0 -47 6 -50 110 -50 l109 0 -12 -59 c-19 -96 7 -165 59 -157 39 5 44
18 43 111 l-1 105 106 0 c100 0 106 3 106 50 0 47 -6 50 -106 50 l-106 0 1
104 c1 112 -37 149 -88 87z"/>
<path d="M83 1383 c-29 -4 -42 -16 -36 -33 6 -15 17 -59 24 -99 14 -72 78
-102 100 -46 23 59 -39 185 -88 178z"/>
<path d="M3281 1306 c-30 -121 36 -192 77 -81 45 123 44 150 -7 160 -42 8 -50
-1 -70 -79z"/>
<path d="M227 975 l-42 -19 49 -88 c50 -90 85 -108 121 -63 35 45 -76 193
-128 170z"/>
<path d="M3117 908 c-45 -72 -49 -89 -26 -109 40 -33 64 -19 119 73 l49 82
-45 20 c-39 18 -50 11 -97 -66z"/>
<path d="M459 609 c-44 -53 107 -192 155 -144 32 33 30 39 -34 105 -77 79 -85
82 -121 39z"/>
<path d="M2859 569 c-105 -108 -37 -174 71 -69 80 78 84 91 33 118 -30 16 -50
7 -104 -49z"/>
<path d="M798 328 c-29 -35 -7 -60 106 -120 48 -25 133 31 93 60 -117 85 -166
100 -199 60z"/>
<path d="M2530 319 c-33 -21 -68 -42 -78 -45 -10 -3 -7 -26 6 -50 25 -47 65
-37 171 42 85 64 -6 112 -99 53z"/>
<path d="M1193 150 c-22 -57 -15 -65 80 -89 75 -19 97 -18 110 3 31 49 17 72
-54 85 -40 7 -84 18 -98 23 -14 6 -31 -4 -38 -22z"/>
<path d="M2125 155 c-84 -21 -100 -41 -68 -91 18 -29 203 5 203 37 0 29 -24
79 -37 77 -7 -2 -51 -12 -98 -23z"/>
<path d="M1620 51 c0 -45 7 -49 100 -48 92 1 100 5 100 49 0 44 -8 48 -100 48
-93 0 -100 -4 -100 -49z"/>
</g>
</svg>
