<?xml version="1.0" encoding="UTF-8"?>
<!DOCTYPE svg PUBLIC "-//W3C//DTD SVG 1.1//EN" "http://www.w3.org/Graphics/SVG/1.1/DTD/svg11.dtd">
<svg xmlns="http://www.w3.org/2000/svg" version="1.1" width="153px" height="158px" style="shape-rendering:geometricPrecision; text-rendering:geometricPrecision; image-rendering:optimizeQuality; fill-rule:evenodd; clip-rule:evenodd" xmlns:xlink="http://www.w3.org/1999/xlink">
<g><path style="opacity:0.941" fill="#c9cbda" d="M 120.5,157.5 C 91.1667,157.5 61.8333,157.5 32.5,157.5C 23.0021,154.824 17.5021,148.491 16,138.5C 15.0296,98.7949 15.3629,59.1282 17,19.5C 19.8333,14 24,9.83333 29.5,7C 41.2792,5.87579 53.1126,5.37579 65,5.5C 75.5,5.66667 86,5.83333 96.5,6C 98.8782,6.5112 101.212,7.17786 103.5,8C 114.333,17.5 124.5,27.6667 134,38.5C 134.667,40.5 135.333,42.5 136,44.5C 136.667,76.8333 136.667,109.167 136,141.5C 133.315,149.35 128.148,154.684 120.5,157.5 Z M 33.5,17.5 C 51.1667,17.5 68.8333,17.5 86.5,17.5C 86.3335,27.5056 86.5002,37.5056 87,47.5C 89.2755,51.8827 92.7755,54.716 97.5,56C 106.827,56.4998 116.161,56.6665 125.5,56.5C 125.667,83.5021 125.5,110.502 125,137.5C 124.167,142.333 121.333,145.167 116.5,146C 103.167,146.167 89.8333,146.333 76.5,146.5C 61.7816,146.633 47.1149,146.133 32.5,145C 30.6217,143.457 29.1217,141.624 28,139.5C 27.3333,100.833 27.3333,62.1667 28,23.5C 29.3597,20.9774 31.193,18.9774 33.5,17.5 Z M 97.5,18.5 C 106.779,26.1112 115.446,34.4445 123.5,43.5C 115.187,44.6651 106.853,44.8317 98.5,44C 97.5168,35.5851 97.1834,27.0851 97.5,18.5 Z"/></g>
</svg>
