<svg version="1.1" id="Layer_1" xmlns="http://www.w3.org/2000/svg" xmlns:xlink="http://www.w3.org/1999/xlink" x="0px" y="0px"
	 width="100%" viewBox="0 0 124 115" enable-background="new 0 0 124 115" xml:space="preserve">
<path fill="#B0B0B0" opacity="1.000000" stroke="none" 
	d="
M59.000000,1.000000 
	C61.370556,1.000000 63.741116,1.000000 66.819649,1.313637 
	C68.176285,1.740183 68.820679,1.902807 69.474213,1.958763 
	C87.783859,3.526426 103.102760,10.781593 114.859451,25.250837 
	C120.333115,31.987413 122.733337,39.923100 125.000000,48.000000 
	C125.000000,51.692909 125.000000,55.385818 124.694038,59.764496 
	C122.018349,74.071831 114.855209,84.709152 103.924553,92.892006 
	C89.681709,103.554420 73.441643,107.016411 55.961155,105.960907 
	C53.880146,105.835251 51.563519,105.916794 49.690495,106.700981 
	C42.718094,109.620148 35.885239,112.872635 29.000000,116.000000 
	C27.933331,116.000000 26.866661,116.000000 25.227346,115.706879 
	C16.696644,110.679169 15.380816,105.903175 20.323833,98.316536 
	C22.322123,95.249519 22.023205,93.510330 19.302431,90.805168 
	C14.790436,86.319054 10.506404,81.357468 7.258255,75.920006 
	C4.373311,71.090553 3.026012,65.342552 1.000000,60.000000 
	C1.000000,55.643101 1.000000,51.286201 1.299700,46.245247 
	C6.645834,24.546402 20.551229,11.889046 40.359100,5.180585 
	C46.356747,3.149323 52.774612,2.358822 59.000000,1.000000 
M104.615349,27.909626 
	C87.601440,10.837148 67.092812,7.539113 44.757256,13.638745 
	C29.515110,17.801233 18.051416,27.246040 12.385950,42.356121 
	C6.627345,57.714607 13.648335,75.937645 29.308760,86.540787 
	C33.593227,89.441650 34.323566,92.261261 32.082363,96.473114 
	C30.503935,99.439438 28.968962,102.428871 27.414587,105.407982 
	C27.736979,105.811279 28.059370,106.214569 28.381760,106.617867 
	C33.927975,103.805580 39.390095,100.805916 45.057034,98.262627 
	C47.759346,97.049843 50.945911,95.813332 53.750771,96.112045 
	C71.027214,97.952019 86.681152,94.644585 100.531090,83.579636 
	C118.104866,69.539650 120.269676,44.944775 104.615349,27.909626 
z"/>
<path fill="#FFFFFF" opacity="1.000000" stroke="none" 
	d="
M29.468658,116.000000 
	C35.885239,112.872635 42.718094,109.620148 49.690495,106.700981 
	C51.563519,105.916794 53.880146,105.835251 55.961155,105.960907 
	C73.441643,107.016411 89.681709,103.554420 103.924553,92.892006 
	C114.855209,84.709152 122.018349,74.071831 124.694038,60.225136 
	C125.000000,78.612785 125.000000,97.225578 125.000000,116.000000 
	C93.312607,116.000000 61.624962,116.000000 29.468658,116.000000 
z"/>
<path fill="#FFFFFF" opacity="1.000000" stroke="none" 
	d="
M125.000000,47.531342 
	C122.733337,39.923100 120.333115,31.987413 114.859451,25.250837 
	C103.102760,10.781593 87.783859,3.526426 69.474213,1.958763 
	C68.820679,1.902807 68.176285,1.740183 67.263809,1.313637 
	C86.252426,1.000000 105.504845,1.000000 125.000000,1.000000 
	C125.000000,16.353376 125.000000,31.708029 125.000000,47.531342 
z"/>
<path fill="#FFFFFF" opacity="1.000000" stroke="none" 
	d="
M58.531342,1.000000 
	C52.774612,2.358822 46.356747,3.149323 40.359100,5.180585 
	C20.551229,11.889046 6.645834,24.546402 1.299700,45.780594 
	C1.000000,31.063997 1.000000,16.127995 1.000000,1.000000 
	C20.020464,1.000000 39.041573,1.000000 58.531342,1.000000 
z"/>
<path fill="#FFFFFF" opacity="1.000000" stroke="none" 
	d="
M1.000000,60.468658 
	C3.026012,65.342552 4.373311,71.090553 7.258255,75.920006 
	C10.506404,81.357468 14.790436,86.319054 19.302431,90.805168 
	C22.023205,93.510330 22.322123,95.249519 20.323833,98.316536 
	C15.380816,105.903175 16.696644,110.679169 24.827351,115.706879 
	C17.044006,116.000000 9.088014,116.000000 1.000000,116.000000 
	C1.000000,97.645958 1.000000,79.291634 1.000000,60.468658 
z"/>
<path fill="#FFFFFF" opacity="1.000000" stroke="none" 
	d="
M104.846985,28.179949 
	C120.269676,44.944775 118.104866,69.539650 100.531090,83.579636 
	C86.681152,94.644585 71.027214,97.952019 53.750771,96.112045 
	C50.945911,95.813332 47.759346,97.049843 45.057034,98.262627 
	C39.390095,100.805916 33.927975,103.805580 28.381760,106.617867 
	C28.059370,106.214569 27.736979,105.811279 27.414587,105.407982 
	C28.968962,102.428871 30.503935,99.439438 32.082363,96.473114 
	C34.323566,92.261261 33.593227,89.441650 29.308760,86.540787 
	C13.648335,75.937645 6.627345,57.714607 12.385950,42.356121 
	C18.051416,27.246040 29.515110,17.801233 44.757256,13.638745 
	C67.092812,7.539113 87.601440,10.837148 104.846985,28.179949 
M75.353310,39.281708 
	C65.393120,39.292686 55.431969,39.229408 45.473293,39.357979 
	C42.311855,39.398796 39.117081,40.413853 39.264095,44.276405 
	C39.402618,47.915695 42.238270,49.055405 45.629559,49.030598 
	C52.103416,48.983242 58.577885,49.022137 65.052101,49.021111 
	C70.364265,49.020267 75.676598,49.037579 80.988533,49.000366 
	C84.243736,48.977570 87.041588,47.385967 86.482132,44.146851 
	C86.164566,42.308247 83.286652,40.602051 81.211487,39.489922 
	C79.910973,38.792950 77.959755,39.310158 75.353310,39.281708 
M44.334846,58.416580 
	C41.388508,59.124313 38.193558,60.483143 39.500572,63.871109 
	C40.237965,65.782539 43.522366,67.552437 45.848331,67.835831 
	C50.772179,68.435753 55.820042,67.994217 60.816719,68.028061 
	C64.261253,68.051392 67.620338,67.430420 67.510330,63.227230 
	C67.405922,59.237785 64.135399,58.304699 60.676697,58.299099 
	C55.513519,58.290737 50.350281,58.319607 44.334846,58.416580 
z"/>
<path fill="#B2B2B2" opacity="1.000000" stroke="none" 
	d="
M75.826904,39.282146 
	C77.959755,39.310158 79.910973,38.792950 81.211487,39.489922 
	C83.286652,40.602051 86.164566,42.308247 86.482132,44.146851 
	C87.041588,47.385967 84.243736,48.977570 80.988533,49.000366 
	C75.676598,49.037579 70.364265,49.020267 65.052101,49.021111 
	C58.577885,49.022137 52.103416,48.983242 45.629559,49.030598 
	C42.238270,49.055405 39.402618,47.915695 39.264095,44.276405 
	C39.117081,40.413853 42.311855,39.398796 45.473293,39.357979 
	C55.431969,39.229408 65.393120,39.292686 75.826904,39.282146 
z"/>
<path fill="#B2B2B2" opacity="1.000000" stroke="none" 
	d="
M44.760956,58.374611 
	C50.350281,58.319607 55.513519,58.290737 60.676697,58.299099 
	C64.135399,58.304699 67.405922,59.237785 67.510330,63.227230 
	C67.620338,67.430420 64.261253,68.051392 60.816719,68.028061 
	C55.820042,67.994217 50.772179,68.435753 45.848331,67.835831 
	C43.522366,67.552437 40.237965,65.782539 39.500572,63.871109 
	C38.193558,60.483143 41.388508,59.124313 44.760956,58.374611 
z"/>
</svg>