<?xml version="1.0" encoding="UTF-8"?>
<!DOCTYPE svg PUBLIC "-//W3C//DTD SVG 1.1//EN" "http://www.w3.org/Graphics/SVG/1.1/DTD/svg11.dtd">
<svg xmlns="http://www.w3.org/2000/svg" version="1.1" width="153px" height="158px" style="shape-rendering:geometricPrecision; text-rendering:geometricPrecision; image-rendering:optimizeQuality; fill-rule:evenodd; clip-rule:evenodd" xmlns:xlink="http://www.w3.org/1999/xlink">
<g><path style="opacity:0.934" fill="#c9cbda" d="M 152.5,76.5 C 152.5,79.8333 152.5,83.1667 152.5,86.5C 146.987,126.014 124.653,149.681 85.5,157.5C 79.1667,157.5 72.8333,157.5 66.5,157.5C 30.6335,150.134 8.80021,128.467 1,92.5C -1.99738,55.6507 12.836,28.8174 45.5,12C 83.0392,-1.48522 114.206,7.34811 139,38.5C 146.614,50.1822 151.114,62.8488 152.5,76.5 Z M 65.5,17.5 C 98.2154,14.9329 121.715,28.2662 136,57.5C 145.872,87.2159 139.039,112.383 115.5,133C 88.0486,151.312 61.0486,150.645 34.5,131C 13.0683,110.774 6.90165,86.6074 16,58.5C 25.7427,36.5838 42.2427,22.9171 65.5,17.5 Z M 59.5,104.5 C 70.3404,103.176 81.3404,103.176 92.5,104.5C 86.1638,114.711 77.4971,117.211 66.5,112C 63.9614,109.63 61.6281,107.13 59.5,104.5 Z"/></g>
<g><path style="opacity:0.891" fill="#c9cbda" d="M 46.5,56.5 C 54.6559,55.8211 58.1559,59.4878 57,67.5C 52.3333,72.8333 47.6667,72.8333 43,67.5C 41.6624,62.9597 42.8291,59.293 46.5,56.5 Z"/></g>
<g><path style="opacity:0.894" fill="#c9cbda" d="M 99.5,56.5 C 109.047,56.8855 111.714,61.3855 107.5,70C 98.961,73.4511 94.7943,70.6177 95,61.5C 96.025,59.313 97.525,57.6464 99.5,56.5 Z"/></g>
<g><path style="opacity:0.943" fill="#c9cbda" d="M 50.5,91.5 C 67.8365,91.3334 85.1699,91.5001 102.5,92C 104.444,93.722 105.444,95.8887 105.5,98.5C 101.611,119.943 88.944,128.777 67.5,125C 53.2939,119.754 46.7939,109.587 48,94.5C 48.6979,93.3094 49.5313,92.3094 50.5,91.5 Z M 59.5,104.5 C 61.6281,107.13 63.9614,109.63 66.5,112C 77.4971,117.211 86.1638,114.711 92.5,104.5C 81.3404,103.176 70.3404,103.176 59.5,104.5 Z"/></g>
</svg>
