<?xml version="1.0" encoding="UTF-8"?>
<!DOCTYPE svg PUBLIC "-//W3C//DTD SVG 1.1//EN" "http://www.w3.org/Graphics/SVG/1.1/DTD/svg11.dtd">
<svg xmlns="http://www.w3.org/2000/svg" version="1.1" width="153px" height="158px" style="shape-rendering:geometricPrecision; text-rendering:geometricPrecision; image-rendering:optimizeQuality; fill-rule:evenodd; clip-rule:evenodd" xmlns:xlink="http://www.w3.org/1999/xlink">
<g><path style="opacity:0.932" fill="#c9cbda" d="M 152.5,46.5 C 152.5,49.8333 152.5,53.1667 152.5,56.5C 151.21,65.0855 147.71,72.7522 142,79.5C 132.833,88.6667 123.667,97.8333 114.5,107C 90.255,121.774 70.255,117.274 54.5,93.5C 56.0713,87.8786 59.4046,86.3786 64.5,89C 68.9094,94.0804 73.9094,98.4137 79.5,102C 88.161,105.573 96.4944,104.906 104.5,100C 116.398,88.7708 127.565,76.9375 138,64.5C 144.683,43.7016 137.85,29.535 117.5,22C 108.995,20.5093 100.995,21.8426 93.5,26C 88.8663,29.6321 84.533,33.6321 80.5,38C 73.2684,39.1092 70.7684,36.2759 73,29.5C 92.7285,6.34681 114.895,3.51347 139.5,21C 146.124,28.4168 150.458,36.9168 152.5,46.5 Z"/></g>
<g><path style="opacity:0.931" fill="#c9cbda" d="M 57.5,47.5 C 73.2924,47.1459 86.1258,53.1459 96,65.5C 98.7463,72.7566 96.2463,75.9232 88.5,75C 83.7063,69.2001 78.0397,64.5334 71.5,61C 63.5445,58.5605 55.8779,59.2272 48.5,63C 38,73.5 27.5,84 17,94.5C 7.91252,111.733 11.0792,126.233 26.5,138C 36.3287,143.574 46.3287,143.907 56.5,139C 62.4578,134.711 68.1244,130.044 73.5,125C 79.0963,124.981 81.2629,127.814 80,133.5C 62.5416,155.077 41.7083,159.243 17.5,146C 2.75029,133.751 -2.41638,118.251 2,99.5C 3.97281,93.5508 6.97281,88.2175 11,83.5C 21.5631,72.2676 32.7297,61.7676 44.5,52C 48.8456,50.164 53.179,48.664 57.5,47.5 Z"/></g>
</svg>
