<?xml version="1.0" encoding="UTF-8"?>
<!DOCTYPE svg PUBLIC "-//W3C//DTD SVG 1.1//EN" "http://www.w3.org/Graphics/SVG/1.1/DTD/svg11.dtd">
<svg xmlns="http://www.w3.org/2000/svg" version="1.1" width="153px" height="158px" style="shape-rendering:geometricPrecision; text-rendering:geometricPrecision; image-rendering:optimizeQuality; fill-rule:evenodd; clip-rule:evenodd" xmlns:xlink="http://www.w3.org/1999/xlink">
<g><path style="opacity:0.941" fill="#c9cbda" d="M 63.5,-0.5 C 71.1667,-0.5 78.8333,-0.5 86.5,-0.5C 132.685,11.4631 154.185,41.4631 151,89.5C 148.403,103.593 139.903,111.259 125.5,112.5C 116.181,111.511 108.847,107.178 103.5,99.5C 84.6795,116.783 65.8462,116.783 47,99.5C 36.4952,84.5946 35.8285,69.2613 45,53.5C 59.3052,37.2558 76.1385,34.0891 95.5,44C 102.981,49.4467 108.147,56.6133 111,65.5C 112.131,74.1237 112.798,82.7904 113,91.5C 117.219,99.6872 123.719,102.187 132.5,99C 135.745,97.0194 137.911,94.1861 139,90.5C 143.656,52.2318 128.156,26.3985 92.5,13C 57.8604,6.238 32.3604,18.4047 16,49.5C 3.83888,86.656 14.6722,114.823 48.5,134C 72.0566,143.225 94.2232,140.725 115,126.5C 121.73,129.734 122.23,133.901 116.5,139C 79.7298,158.924 46.5632,154.091 17,124.5C 8.14832,113.136 2.31498,100.469 -0.5,86.5C -0.5,78.8333 -0.5,71.1667 -0.5,63.5C 7.16667,28.5 28.5,7.16667 63.5,-0.5 Z M 71.5,49.5 C 86.1196,48.9628 95.6196,55.6295 100,69.5C 101.177,90.9899 91.0101,101.157 69.5,100C 50.5464,92.2578 45.3798,79.0912 54,60.5C 58.5777,54.6384 64.411,50.9717 71.5,49.5 Z"/></g>
</svg>
