<?xml version="1.0" encoding="UTF-8"?>
<!DOCTYPE svg PUBLIC "-//W3C//DTD SVG 1.1//EN" "http://www.w3.org/Graphics/SVG/1.1/DTD/svg11.dtd">
<svg xmlns="http://www.w3.org/2000/svg" version="1.1" width="156px" height="157px" style="shape-rendering:geometricPrecision; text-rendering:geometricPrecision; image-rendering:optimizeQuality; fill-rule:evenodd; clip-rule:evenodd" xmlns:xlink="http://www.w3.org/1999/xlink">
<g><path style="opacity:0.871" fill="#e0e2e4" d="M 61.5,3.5 C 57.1311,3.46716 52.7978,3.80049 48.5,4.5C 50.8476,3.04832 53.5143,2.38165 56.5,2.5C 58.3693,2.50681 60.036,2.84014 61.5,3.5 Z"/></g>
<g><path style="opacity:1" fill="#fbfbfb" d="M 61.5,3.5 C 62.4916,3.32842 63.1583,3.66175 63.5,4.5C 64.1667,5.83333 65.1667,6.83333 66.5,7.5C 67.8366,9.34946 68.5033,11.5161 68.5,14C 67.0712,20.2864 65.2379,26.453 63,32.5C 60.4755,44.5396 61.6421,56.2063 66.5,67.5C 66.2291,69.3797 66.8958,70.713 68.5,71.5C 69.3382,71.8417 69.6716,72.5084 69.5,73.5C 69.427,75.0269 70.0937,76.0269 71.5,76.5C 71.427,78.0269 72.0937,79.0269 73.5,79.5C 76.1667,84.1667 79.8333,87.8333 84.5,90.5C 85.1667,90.5 85.5,90.8333 85.5,91.5C 85.9731,92.9063 86.9731,93.573 88.5,93.5C 103.421,102.394 119.421,105.061 136.5,101.5C 139.155,101.44 141.489,102.107 143.5,103.5C 145.196,105.525 146.863,107.525 148.5,109.5C 149.812,114.901 148.478,119.568 144.5,123.5C 143.094,123.973 142.427,124.973 142.5,126.5C 141.833,127.833 140.833,128.833 139.5,129.5C 137.5,130.833 135.833,132.5 134.5,134.5C 133.833,135.833 132.833,136.833 131.5,137.5C 129.973,137.427 128.973,138.094 128.5,139.5C 128.5,140.167 128.167,140.5 127.5,140.5C 125.973,140.427 124.973,141.094 124.5,142.5C 122.973,142.427 121.973,143.094 121.5,144.5C 104.878,154.33 86.8778,157.83 67.5,155C 60.3145,154.045 53.6478,151.879 47.5,148.5C 45.8185,146.992 43.8185,145.992 41.5,145.5C 40.5084,145.672 39.8417,145.338 39.5,144.5C 39.0269,143.094 38.0269,142.427 36.5,142.5C 36.0269,141.094 35.0269,140.427 33.5,140.5C 32.7377,138.738 31.4044,137.738 29.5,137.5C 26.1667,133.5 22.5,129.833 18.5,126.5C 17.8333,126.5 17.5,126.167 17.5,125.5C 17.2624,123.596 16.2624,122.262 14.5,121.5C 14.573,119.973 13.9063,118.973 12.5,118.5C 12.573,116.973 11.9063,115.973 10.5,115.5C 8.99249,113.819 7.99249,111.819 7.5,109.5C 7.59794,107.447 6.93127,105.78 5.5,104.5C -0.986845,86.0398 -1.15351,67.3731 5,48.5C 6.9409,44.2784 9.10756,40.2784 11.5,36.5C 12.9063,36.0269 13.573,35.0269 13.5,33.5C 15.2624,32.7377 16.2624,31.4044 16.5,29.5C 18.5869,28.4154 19.9202,26.7488 20.5,24.5C 21.1667,23.1667 22.1667,22.1667 23.5,21.5C 26.7642,19.9059 29.4309,17.5725 31.5,14.5C 33.4044,14.2624 34.7377,13.2624 35.5,11.5C 37.674,11.2503 39.3406,10.2503 40.5,8.5C 42.8485,6.659 45.5152,5.32567 48.5,4.5C 52.7978,3.80049 57.1311,3.46716 61.5,3.5 Z M 53.5,15.5 C 54.4916,15.3284 55.1583,15.6618 55.5,16.5C 51.2096,25.0384 49.2096,34.2051 49.5,44C 49.3958,52.2115 50.7291,60.0448 53.5,67.5C 53.4021,69.5529 54.0687,71.2196 55.5,72.5C 55.9925,74.8185 56.9925,76.8185 58.5,78.5C 58.427,80.0269 59.0937,81.0269 60.5,81.5C 60.427,83.0269 61.0937,84.0269 62.5,84.5C 62.427,86.0269 63.0937,87.0269 64.5,87.5C 64.5,88.1667 64.8333,88.5 65.5,88.5C 67.8333,92.8333 71.1667,96.1667 75.5,98.5C 76.5846,100.587 78.2512,101.92 80.5,102.5C 80.9731,103.906 81.9731,104.573 83.5,104.5C 83.8417,105.338 84.5084,105.672 85.5,105.5C 87.5792,107.873 90.2459,109.206 93.5,109.5C 105.868,115.168 118.868,116.835 132.5,114.5C 133.791,114.263 134.791,114.596 135.5,115.5C 134.094,115.973 133.427,116.973 133.5,118.5C 132.5,118.833 131.833,119.5 131.5,120.5C 128.5,122.833 125.833,125.5 123.5,128.5C 121.596,128.738 120.262,129.738 119.5,131.5C 117.973,131.427 116.973,132.094 116.5,133.5C 115.508,133.328 114.842,133.662 114.5,134.5C 111.515,135.326 108.849,136.659 106.5,138.5C 86.4066,145.906 66.7399,144.906 47.5,135.5C 47.0269,134.094 46.0269,133.427 44.5,133.5C 43.7095,132.599 42.7095,131.932 41.5,131.5C 41.0269,130.094 40.0269,129.427 38.5,129.5C 38.5,128.833 38.1667,128.5 37.5,128.5C 33.8333,124.167 29.8333,120.167 25.5,116.5C 25.573,114.973 24.9063,113.973 23.5,113.5C 23.573,111.973 22.9063,110.973 21.5,110.5C 20.3411,106.849 18.6744,103.515 16.5,100.5C 16.405,98.2143 15.7384,96.2143 14.5,94.5C 10.1881,75.736 12.8548,58.0693 22.5,41.5C 23.9063,41.0269 24.573,40.0269 24.5,38.5C 25.1667,38.5 25.5,38.1667 25.5,37.5C 26.9063,37.0269 27.573,36.0269 27.5,34.5C 30.5,32.1667 33.1667,29.5 35.5,26.5C 37.4044,26.2624 38.7377,25.2624 39.5,23.5C 40.1667,23.5 40.5,23.1667 40.5,22.5C 42.0269,22.573 43.0269,21.9063 43.5,20.5C 44.4916,20.6716 45.1583,20.3382 45.5,19.5C 48.4848,18.6743 51.1515,17.341 53.5,15.5 Z"/></g>
<g><path style="opacity:0.757" fill="#d8dbdd" d="M 63.5,4.5 C 65.5,4.5 66.5,5.5 66.5,7.5C 65.1667,6.83333 64.1667,5.83333 63.5,4.5 Z"/></g>
<g><path style="opacity:0.706" fill="#d8dbdd" d="M 40.5,8.5 C 39.3406,10.2503 37.674,11.2503 35.5,11.5C 36.6594,9.74973 38.326,8.74973 40.5,8.5 Z"/></g>
<g><path style="opacity:0.8" fill="#dcdee0" d="M 35.5,11.5 C 34.7377,13.2624 33.4044,14.2624 31.5,14.5C 32.2623,12.7376 33.5956,11.7376 35.5,11.5 Z"/></g>
<g><path style="opacity:0.706" fill="#d7dadc" d="M 53.5,15.5 C 54.3864,14.2241 55.3864,14.2241 56.5,15.5C 56.3764,16.1067 56.0431,16.44 55.5,16.5C 55.1583,15.6618 54.4916,15.3284 53.5,15.5 Z"/></g>
<g><path style="opacity:0.706" fill="#d8dbdd" d="M 53.5,15.5 C 51.1515,17.341 48.4848,18.6743 45.5,19.5C 47.5792,17.127 50.2459,15.7936 53.5,15.5 Z"/></g>
<g><path style="opacity:0.969" fill="#e5e7e8" d="M 31.5,14.5 C 29.4309,17.5725 26.7642,19.9059 23.5,21.5C 25.5691,18.4275 28.2358,16.0941 31.5,14.5 Z"/></g>
<g><path style="opacity:0.706" fill="#d7dadc" d="M 43.5,20.5 C 43.0269,21.9063 42.0269,22.573 40.5,22.5C 40.9731,21.0937 41.9731,20.427 43.5,20.5 Z"/></g>
<g><path style="opacity:0.706" fill="#d6d9db" d="M 39.5,23.5 C 38.7377,25.2624 37.4044,26.2624 35.5,26.5C 36.2623,24.7376 37.5956,23.7376 39.5,23.5 Z"/></g>
<g><path style="opacity:0.757" fill="#dcdee0" d="M 20.5,24.5 C 19.9202,26.7488 18.5869,28.4154 16.5,29.5C 17.0798,27.2512 18.4131,25.5846 20.5,24.5 Z"/></g>
<g><path style="opacity:0.8" fill="#dcdfe0" d="M 16.5,29.5 C 16.2624,31.4044 15.2624,32.7377 13.5,33.5C 13.7376,31.5956 14.7376,30.2623 16.5,29.5 Z"/></g>
<g><path style="opacity:0.8" fill="#d8dbdd" d="M 13.5,33.5 C 13.573,35.0269 12.9063,36.0269 11.5,36.5C 11.427,34.9731 12.0937,33.9731 13.5,33.5 Z"/></g>
<g><path style="opacity:0.706" fill="#d7dadc" d="M 27.5,34.5 C 27.573,36.0269 26.9063,37.0269 25.5,37.5C 25.427,35.9731 26.0937,34.9731 27.5,34.5 Z"/></g>
<g><path style="opacity:0.706" fill="#d6d9db" d="M 24.5,38.5 C 24.573,40.0269 23.9063,41.0269 22.5,41.5C 22.427,39.9731 23.0937,38.9731 24.5,38.5 Z"/></g>
<g><path style="opacity:0.706" fill="#d8dadc" d="M 53.5,67.5 C 54.9313,68.7804 55.5979,70.4471 55.5,72.5C 54.0687,71.2196 53.4021,69.5529 53.5,67.5 Z"/></g>
<g><path style="opacity:0.706" fill="#d6d9db" d="M 66.5,67.5 C 67.6737,68.5137 68.3404,69.847 68.5,71.5C 66.8958,70.713 66.2291,69.3797 66.5,67.5 Z"/></g>
<g><path style="opacity:0.706" fill="#d6d9db" d="M 69.5,73.5 C 70.9063,73.9731 71.573,74.9731 71.5,76.5C 70.0937,76.0269 69.427,75.0269 69.5,73.5 Z"/></g>
<g><path style="opacity:0.706" fill="#d6d9db" d="M 71.5,76.5 C 72.9063,76.9731 73.573,77.9731 73.5,79.5C 72.0937,79.0269 71.427,78.0269 71.5,76.5 Z"/></g>
<g><path style="opacity:0.706" fill="#d8dbdd" d="M 58.5,78.5 C 59.9063,78.9731 60.573,79.9731 60.5,81.5C 59.0937,81.0269 58.427,80.0269 58.5,78.5 Z"/></g>
<g><path style="opacity:0.757" fill="#d9dcde" d="M 73.5,79.5 C 77.5,82.8333 81.1667,86.5 84.5,90.5C 79.8333,87.8333 76.1667,84.1667 73.5,79.5 Z"/></g>
<g><path style="opacity:0.706" fill="#d8dbdd" d="M 62.5,84.5 C 63.9063,84.9731 64.573,85.9731 64.5,87.5C 63.0937,87.0269 62.427,86.0269 62.5,84.5 Z"/></g>
<g><path style="opacity:0.706" fill="#dadcde" d="M 65.5,88.5 C 69.1667,91.5 72.5,94.8333 75.5,98.5C 71.1667,96.1667 67.8333,92.8333 65.5,88.5 Z"/></g>
<g><path style="opacity:0.706" fill="#dadcde" d="M 85.5,91.5 C 87.0269,91.427 88.0269,92.0937 88.5,93.5C 86.9731,93.573 85.9731,92.9063 85.5,91.5 Z"/></g>
<g><path style="opacity:0.969" fill="#e3e4e6" d="M 14.5,94.5 C 15.7384,96.2143 16.405,98.2143 16.5,100.5C 14.9261,98.8984 14.2594,96.8984 14.5,94.5 Z"/></g>
<g><path style="opacity:0.706" fill="#dcdee0" d="M 75.5,98.5 C 77.7488,99.0798 79.4154,100.413 80.5,102.5C 78.2512,101.92 76.5846,100.587 75.5,98.5 Z"/></g>
<g><path style="opacity:0.706" fill="#d6d9db" d="M 80.5,102.5 C 82.0269,102.427 83.0269,103.094 83.5,104.5C 81.9731,104.573 80.9731,103.906 80.5,102.5 Z"/></g>
<g><path style="opacity:0.706" fill="#dadddf" d="M 143.5,103.5 C 146.621,104.288 148.288,106.288 148.5,109.5C 146.863,107.525 145.196,105.525 143.5,103.5 Z"/></g>
<g><path style="opacity:0.706" fill="#dadddf" d="M 5.5,104.5 C 6.93127,105.78 7.59794,107.447 7.5,109.5C 6.06873,108.22 5.40206,106.553 5.5,104.5 Z"/></g>
<g><path style="opacity:0.706" fill="#d9dbdd" d="M 85.5,105.5 C 88.4848,106.326 91.1515,107.659 93.5,109.5C 90.2459,109.206 87.5792,107.873 85.5,105.5 Z"/></g>
<g><path style="opacity:0.757" fill="#dadddf" d="M 21.5,110.5 C 22.9063,110.973 23.573,111.973 23.5,113.5C 22.0937,113.027 21.427,112.027 21.5,110.5 Z"/></g>
<g><path style="opacity:0.706" fill="#d8dbdd" d="M 132.5,114.5 C 133.946,113.387 135.613,113.22 137.5,114C 136.956,114.717 136.289,115.217 135.5,115.5C 134.791,114.596 133.791,114.263 132.5,114.5 Z"/></g>
<g><path style="opacity:0.706" fill="#d6d9db" d="M 10.5,115.5 C 11.9063,115.973 12.573,116.973 12.5,118.5C 11.0937,118.027 10.427,117.027 10.5,115.5 Z"/></g>
<g><path style="opacity:0.757" fill="#dadddf" d="M 23.5,113.5 C 24.9063,113.973 25.573,114.973 25.5,116.5C 24.0937,116.027 23.427,115.027 23.5,113.5 Z"/></g>
<g><path style="opacity:0.757" fill="#d8dbdd" d="M 135.5,115.5 C 135.573,117.027 134.906,118.027 133.5,118.5C 133.427,116.973 134.094,115.973 135.5,115.5 Z"/></g>
<g><path style="opacity:0.706" fill="#d9dbdd" d="M 12.5,118.5 C 13.9063,118.973 14.573,119.973 14.5,121.5C 13.0937,121.027 12.427,120.027 12.5,118.5 Z"/></g>
<g><path style="opacity:0.706" fill="#d8dbdd" d="M 14.5,121.5 C 16.2624,122.262 17.2624,123.596 17.5,125.5C 15.7376,124.738 14.7376,123.404 14.5,121.5 Z"/></g>
<g><path style="opacity:0.757" fill="#d9dcde" d="M 25.5,116.5 C 29.8333,120.167 33.8333,124.167 37.5,128.5C 32.5,125.5 28.5,121.5 25.5,116.5 Z"/></g>
<g><path style="opacity:0.706" fill="#d6d9db" d="M 144.5,123.5 C 144.573,125.027 143.906,126.027 142.5,126.5C 142.427,124.973 143.094,123.973 144.5,123.5 Z"/></g>
<g><path style="opacity:0.843" fill="#e0e2e4" d="M 131.5,120.5 C 129.833,124.167 127.167,126.833 123.5,128.5C 125.833,125.5 128.5,122.833 131.5,120.5 Z"/></g>
<g><path style="opacity:0.706" fill="#d9dcde" d="M 18.5,126.5 C 22.5,129.833 26.1667,133.5 29.5,137.5C 24.8333,134.833 21.1667,131.167 18.5,126.5 Z"/></g>
<g><path style="opacity:0.706" fill="#d6d9db" d="M 38.5,129.5 C 40.0269,129.427 41.0269,130.094 41.5,131.5C 39.9731,131.573 38.9731,130.906 38.5,129.5 Z"/></g>
<g><path style="opacity:0.8" fill="#dcdee0" d="M 123.5,128.5 C 122.738,130.262 121.404,131.262 119.5,131.5C 120.262,129.738 121.596,128.738 123.5,128.5 Z"/></g>
<g><path style="opacity:0.871" fill="#dddfe1" d="M 119.5,131.5 C 119.027,132.906 118.027,133.573 116.5,133.5C 116.973,132.094 117.973,131.427 119.5,131.5 Z"/></g>
<g><path style="opacity:0.706" fill="#d6d9db" d="M 44.5,133.5 C 46.0269,133.427 47.0269,134.094 47.5,135.5C 45.9731,135.573 44.9731,134.906 44.5,133.5 Z"/></g>
<g><path style="opacity:0.706" fill="#d6d9db" d="M 139.5,129.5 C 138.833,132.167 137.167,133.833 134.5,134.5C 135.833,132.5 137.5,130.833 139.5,129.5 Z"/></g>
<g><path style="opacity:0.706" fill="#d8dbdd" d="M 114.5,134.5 C 112.421,136.873 109.754,138.206 106.5,138.5C 108.849,136.659 111.515,135.326 114.5,134.5 Z"/></g>
<g><path style="opacity:0.8" fill="#dddfe1" d="M 29.5,137.5 C 31.4044,137.738 32.7377,138.738 33.5,140.5C 31.5956,140.262 30.2623,139.262 29.5,137.5 Z"/></g>
<g><path style="opacity:0.706" fill="#d6d9db" d="M 131.5,137.5 C 131.027,138.906 130.027,139.573 128.5,139.5C 128.973,138.094 129.973,137.427 131.5,137.5 Z"/></g>
<g><path style="opacity:0.8" fill="#dee0e2" d="M 33.5,140.5 C 35.0269,140.427 36.0269,141.094 36.5,142.5C 34.9731,142.573 33.9731,141.906 33.5,140.5 Z"/></g>
<g><path style="opacity:0.706" fill="#d5d8da" d="M 127.5,140.5 C 127.027,141.906 126.027,142.573 124.5,142.5C 124.973,141.094 125.973,140.427 127.5,140.5 Z"/></g>
<g><path style="opacity:0.8" fill="#dee0e2" d="M 36.5,142.5 C 38.0269,142.427 39.0269,143.094 39.5,144.5C 37.9731,144.573 36.9731,143.906 36.5,142.5 Z"/></g>
<g><path style="opacity:0.706" fill="#d5d8da" d="M 124.5,142.5 C 124.027,143.906 123.027,144.573 121.5,144.5C 121.973,143.094 122.973,142.427 124.5,142.5 Z"/></g>
<g><path style="opacity:0.706" fill="#dbdddf" d="M 41.5,145.5 C 43.8185,145.992 45.8185,146.992 47.5,148.5C 44.911,148.539 42.911,147.539 41.5,145.5 Z"/></g>
</svg>
