<?xml version="1.0" encoding="utf-8"?>
<!-- Generator: Adobe Illustrator 25.4.1, SVG Export Plug-In . SVG Version: 6.00 Build 0)  -->
<svg version="1.1" id="Layer_1" xmlns="http://www.w3.org/2000/svg" xmlns:xlink="http://www.w3.org/1999/xlink" x="0px" y="0px"
	 viewBox="0 0 800 800" style="enable-background:new 0 0 800 800;" xml:space="preserve">
<style type="text/css">
	.st0{fill-rule:evenodd;clip-rule:evenodd;fill:#8199AF;}
	.st1{fill-rule:evenodd;clip-rule:evenodd;fill:#617F9B;}
	.st2{opacity:0.5;fill-rule:evenodd;clip-rule:evenodd;fill:#FFFFFF;enable-background:new    ;}
	.st3{fill:#FFFFFF;}
	.st4{fill:none;}
	.st5{font-family:'Calibri';}
	.st6{font-size:218px;}
</style>
<path class="st0" d="M113.9,2.7c-35,0-63.4,28.4-63.4,63.4v673c0,35,28.4,63.4,63.4,63.4h572.2c35,0,63.4-28.4,63.4-63.4V256.6
	L513.2,2.7L113.9,2.7L113.9,2.7z"/>
<g>
	<path class="st1" d="M749.7,254.4v12.5h-160c0,0-78.9-15.8-76.6-83.8c0,0,2.6,71.3,75.1,71.3H749.7z"/>
	<path class="st2" d="M513.4,0v182c0,20.7,13.8,72.4,76.3,72.4h160L513.4,0z"/>
</g>
<path class="st3" d="M280.5,673.8h-94.8c-4.7,0-9.4-4.3-9.4-10.3c0-2.2,0.7-4.5,2-6.3l83.5-116.8h-77.6c-4.5,0-8.1-3.6-8.1-8.5
	c0-4.5,3.6-8.1,8.1-8.1h93.2c4.7,0,9.4,4.3,9.4,10.4c0,2.2-0.7,4.5-2,6.3l-83.5,116.8h79.2c4.5,0,8.1,3.6,8.1,8.1
	C288.6,670.2,285,673.8,280.5,673.8L280.5,673.8z M330.6,675.2c-5.2,0-9.2-4-9.2-9.2V531.4c0-5,4-9,9.7-9c4.9,0,9,4,9,9V666
	C340.1,671.1,336,675.2,330.6,675.2L330.6,675.2z M441.1,614.2h-41.6v51.8c0,5.2-4,9.2-9.5,9.2c-5.2,0-9.2-4-9.2-9.2V537.2
	c0-7.4,6.1-13.5,13.5-13.5h46.8c30.2,0,47,20.7,47,45.2S470.8,614.2,441.1,614.2L441.1,614.2z M438.9,540.4h-39.4v57.2h39.4
	c17.8,0,29.9-11.7,29.9-28.6C468.8,552.1,456.6,540.4,438.9,540.4z"/>
<rect x="129" y="461" class="st0" width="437" height="266"/>
<polygon class="st4" points="570,737.4 146,737.4 148,519 572,519 "/>
<text transform="matrix(1 0 0 1 147.8638 666.8027)" class="st3 st5 st6">RAR</text>
</svg>
