<?xml version="1.0" standalone="no"?>
<!DOCTYPE svg PUBLIC "-//W3C//DTD SVG 20010904//EN"
 "http://www.w3.org/TR/2001/REC-SVG-20010904/DTD/svg10.dtd">
<svg version="1.0" xmlns="http://www.w3.org/2000/svg"
 width="120.000000pt" height="128.000000pt" viewBox="0 0 120.000000 128.000000"
 preserveAspectRatio="xMidYMid meet">

<g transform="translate(0.000000,128.000000) scale(0.100000,-0.100000)"
fill="#000000" stroke="none">
<path d="M498 1182 c-30 -18 -58 -67 -58 -101 0 -11 -9 -25 -20 -31 -17 -9
-27 -6 -53 12 -23 16 -46 23 -79 23 -44 0 -52 -4 -100 -53 -49 -48 -53 -56
-53 -100 0 -34 7 -56 24 -78 19 -26 21 -35 12 -53 -7 -11 -21 -21 -32 -21 -35
0 -84 -29 -102 -59 -23 -39 -23 -143 0 -182 18 -30 67 -59 102 -59 11 0 25
-10 32 -21 9 -18 7 -27 -12 -53 -17 -22 -24 -44 -24 -78 0 -44 4 -52 53 -100
49 -50 55 -53 101 -53 33 0 55 6 69 18 12 11 31 17 48 15 23 -2 30 -9 35 -37
17 -83 55 -111 151 -111 96 0 132 29 152 123 8 34 45 37 83 7 48 -37 120 -22
174 37 55 58 62 104 28 167 -29 54 -23 79 21 87 50 8 77 25 95 59 20 38 20
142 -1 181 -15 31 -66 59 -103 59 -31 0 -37 40 -12 81 38 63 23 129 -43 187
-56 49 -120 53 -174 12 -29 -23 -61 -15 -68 19 -20 93 -56 121 -154 121 -43 0
-74 -6 -92 -18z m155 -97 c16 -55 32 -79 67 -103 42 -28 93 -26 139 7 16 12
32 21 35 21 3 0 21 -14 41 -31 37 -33 44 -59 21 -79 -26 -21 -39 -76 -26 -114
14 -45 56 -86 87 -86 48 0 63 -17 63 -70 0 -52 -15 -70 -59 -70 -31 0 -79 -48
-92 -90 -11 -35 -9 -44 16 -95 l29 -56 -37 -37 -37 -36 -54 29 c-50 27 -56 28
-94 17 -48 -15 -92 -63 -92 -101 0 -39 -17 -51 -71 -51 -50 0 -57 5 -64 42
-10 51 -30 80 -66 99 -50 25 -74 24 -126 -7 -42 -24 -46 -25 -68 -10 -14 9
-32 27 -41 41 -15 23 -14 26 6 55 32 45 36 90 12 137 -20 39 -33 47 -107 69
-25 8 -31 16 -33 43 -5 54 5 80 36 87 61 13 84 28 104 67 24 47 20 92 -12 137
-20 29 -21 32 -6 55 9 14 27 32 41 41 22 15 26 14 68 -10 54 -32 80 -32 132
-3 32 18 43 32 53 67 8 25 15 51 18 58 3 9 20 12 56 10 49 -3 53 -5 61 -33z"/>
<path d="M533 841 c-71 -18 -135 -88 -153 -165 -20 -91 7 -161 87 -222 99 -75
246 -45 310 64 23 39 28 59 28 112 -1 88 -41 157 -116 195 -34 18 -115 26
-156 16z m125 -97 c52 -31 68 -68 64 -147 -1 -18 -15 -42 -36 -63 -30 -30 -40
-34 -87 -34 -59 0 -110 27 -128 68 -28 60 1 155 54 181 31 15 104 13 133 -5z"/>
</g>
</svg>
