<?xml version="1.0" standalone="no"?>
<!DOCTYPE svg PUBLIC "-//W3C//DTD SVG 20010904//EN"
 "http://www.w3.org/TR/2001/REC-SVG-20010904/DTD/svg10.dtd">
<svg version="1.0" xmlns="http://www.w3.org/2000/svg"
 width="156.000000pt" height="157.000000pt" viewBox="0 0 156.000000 157.000000"
 preserveAspectRatio="xMidYMid meet">

<g transform="translate(0.000000,157.000000) scale(0.100000,-0.100000)"
fill="#000000" stroke="none">
<path d="M736 1539 c-30 -24 -34 -63 -10 -97 11 -16 25 -22 54 -22 67 0 93 68
45 115 -30 30 -54 31 -89 4z"/>
<path d="M245 1348 c-28 -16 -35 -28 -35 -65 0 -22 8 -38 26 -52 79 -62 160
39 83 103 -34 29 -45 31 -74 14z"/>
<path d="M1253 1350 c-12 -5 -29 -22 -37 -39 -39 -74 50 -136 109 -76 34 33
33 77 -1 104 -29 23 -38 24 -71 11z"/>
<path d="M620 1267 c-256 -87 -402 -354 -335 -612 64 -246 318 -414 568 -375
277 42 474 310 429 583 -31 187 -160 339 -341 403 -91 32 -228 33 -321 1z
m313 -106 c37 -15 79 -43 117 -78 173 -160 181 -418 18 -583 -106 -108 -266
-147 -415 -101 -290 90 -376 463 -156 677 44 43 127 90 186 105 56 14 187 4
250 -20z"/>
<path d="M21 824 c-24 -31 -25 -35 -9 -69 17 -37 86 -51 115 -22 42 42 9 117
-52 117 -24 0 -39 -7 -54 -26z"/>
<path d="M1430 830 c-62 -62 35 -154 100 -95 25 23 26 76 2 98 -25 23 -78 21
-102 -3z"/>
<path d="M235 335 c-33 -32 -34 -87 -3 -109 32 -23 65 -20 93 9 34 33 33 77
-1 104 -35 27 -59 26 -89 -4z"/>
<path d="M1242 353 c-7 -3 -19 -18 -27 -33 -18 -35 -8 -70 27 -94 77 -54 150
47 77 108 -29 25 -50 30 -77 19z"/>
<path d="M730 130 c-43 -43 -11 -120 49 -120 32 0 71 39 71 70 0 10 -9 29 -21
44 -25 32 -70 35 -99 6z"/>
</g>
</svg>
