<?xml version="1.0" standalone="no"?>
<!DOCTYPE svg PUBLIC "-//W3C//DTD SVG 20010904//EN"
 "http://www.w3.org/TR/2001/REC-SVG-20010904/DTD/svg10.dtd">
<svg version="1.0" xmlns="http://www.w3.org/2000/svg"
 width="172.000000pt" height="171.000000pt" viewBox="0 0 172.000000 171.000000"
 preserveAspectRatio="xMidYMid meet">
<metadata>
Created by potrace 1.10, written by Peter Selinger 2001-2011
</metadata>
<g transform="translate(0.000000,171.000000) scale(0.050000,-0.050000)"
fill="#c1c1c1" stroke="none">
<path d="M1614 3219 c15 -54 152 -49 162 6 6 29 -8 35 -83 35 -80 0 -88 -4
-79 -41z"/>
<path d="M1330 3226 c-56 -14 -71 -32 -52 -63 24 -39 166 -9 158 34 -7 35 -42
45 -106 29z"/>
<path d="M1952 3208 c-16 -42 -17 -42 70 -58 67 -12 128 30 82 57 -54 32 -140
33 -152 1z"/>
<path d="M1006 3104 c-51 -27 -60 -41 -44 -68 18 -32 23 -32 83 0 36 19 67 35
70 36 11 4 -20 68 -32 67 -7 0 -42 -16 -77 -35z"/>
<path d="M2273 3110 c-11 -28 75 -90 124 -90 56 0 38 64 -27 91 -85 36 -83 36
-97 -1z"/>
<path d="M709 2914 c-46 -40 -49 -49 -23 -71 36 -30 150 54 126 94 -21 34 -43
29 -103 -23z"/>
<path d="M2568 2937 c-22 -36 93 -121 127 -93 21 18 18 31 -18 69 -48 51 -87
60 -109 24z"/>
<path d="M474 2677 c-46 -58 -48 -69 -21 -84 53 -30 146 76 104 118 -29 29
-36 26 -83 -34z"/>
<path d="M2826 2718 c-29 -29 38 -138 84 -138 53 0 51 38 -4 100 -44 49 -61
57 -80 38z"/>
<path d="M292 2386 c-33 -69 -23 -104 29 -106 40 -1 77 140 42 159 -30 16 -42
7 -71 -53z"/>
<path d="M3022 2432 c-30 -35 25 -160 64 -146 30 11 23 85 -13 136 -24 33 -31
35 -51 10z"/>
<path d="M1308 2411 c-23 -58 15 -71 208 -71 l193 0 272 -271 c201 -201 280
-267 305 -258 62 24 37 58 -253 345 l-286 284 -214 0 c-169 0 -217 -6 -225
-29z"/>
<path d="M1123 2185 c-39 -32 -42 -57 -45 -302 l-2 -267 96 -98 c53 -54 192
-197 309 -317 298 -308 330 -310 601 -46 318 311 316 329 -70 722 -155 158
-306 299 -336 315 -85 44 -498 39 -553 -7z m799 -369 c164 -168 298 -319 298
-336 0 -17 -90 -120 -199 -229 -244 -243 -201 -253 -576 130 l-285 291 0 224
0 224 232 0 233 0 297 -304z"/>
<path d="M1393 1887 c-27 -28 -12 -106 26 -126 75 -41 154 46 100 110 -25 30
-102 39 -126 16z"/>
<path d="M173 2058 c-19 -91 -17 -98 25 -98 33 0 62 66 62 143 0 51 -76 12
-87 -45z"/>
<path d="M3127 2075 c7 -25 13 -61 13 -80 0 -22 15 -35 43 -35 36 0 40 8 30
63 -7 34 -13 70 -13 80 0 9 -19 17 -42 17 -34 0 -40 -9 -31 -45z"/>
<path d="M140 1700 c0 -67 7 -80 40 -80 33 0 40 13 40 80 0 67 -7 80 -40 80
-33 0 -40 -13 -40 -80z"/>
<path d="M3177 1700 c4 -51 17 -80 35 -80 19 0 28 25 28 80 0 63 -7 80 -36 80
-29 0 -34 -14 -27 -80z"/>
<path d="M171 1375 c16 -80 42 -110 69 -83 35 35 1 148 -44 148 -34 0 -37 -9
-25 -65z"/>
<path d="M3140 1402 c0 -21 -5 -53 -12 -70 -11 -28 41 -70 61 -49 37 37 32
157 -7 157 -28 0 -42 -13 -42 -38z"/>
<path d="M270 1101 c-20 -34 49 -146 83 -133 17 7 34 12 38 12 5 0 -7 32 -25
70 -33 69 -72 89 -96 51z"/>
<path d="M3025 1057 c-40 -106 13 -137 64 -38 40 77 39 101 -5 101 -21 0 -45
-25 -59 -63z"/>
<path d="M455 818 c-32 -18 -31 -25 19 -88 41 -51 61 -63 80 -47 51 43 -41
168 -99 135z"/>
<path d="M2844 779 c-46 -58 -45 -99 3 -99 43 0 114 111 88 137 -32 32 -39 29
-91 -38z"/>
<path d="M679 568 c-22 -26 -17 -38 32 -79 63 -51 96 -53 103 -7 8 51 -105
123 -135 86z"/>
<path d="M2615 550 c-96 -84 -44 -142 55 -61 53 43 57 52 30 78 -27 27 -36 25
-85 -17z"/>
<path d="M962 372 c-26 -31 -2 -58 82 -90 45 -17 103 22 71 48 -51 43 -134 66
-153 42z"/>
<path d="M2329 364 c-105 -59 -70 -126 37 -71 81 41 77 36 62 74 -15 40 -22
40 -99 -3z"/>
<path d="M1274 239 c-9 -35 127 -91 155 -63 30 30 3 61 -67 79 -68 17 -80 15
-88 -16z"/>
<path d="M2017 255 c-105 -26 -89 -98 16 -74 85 19 96 28 74 64 -13 21 -34 23
-90 10z"/>
<path d="M1620 180 c0 -33 13 -40 80 -40 67 0 80 7 80 40 0 33 -13 40 -80 40
-67 0 -80 -7 -80 -40z"/>
</g>
</svg>
