<?xml version="1.0" standalone="no"?>
<!DOCTYPE svg PUBLIC "-//W3C//DTD SVG 20010904//EN"
 "http://www.w3.org/TR/2001/REC-SVG-20010904/DTD/svg10.dtd">
<svg version="1.0" xmlns="http://www.w3.org/2000/svg"
 width="120.000000pt" height="128.000000pt" viewBox="0 0 120.000000 128.000000"
 preserveAspectRatio="xMidYMid meet">

<g transform="translate(0.000000,128.000000) scale(0.100000,-0.100000)"
fill="#000000" stroke="none">
<path d="M506 1254 c-120 -38 -201 -124 -232 -245 -40 -157 51 -332 202 -389
244 -91 492 111 452 367 -30 193 -239 326 -422 267z m201 -106 c125 -58 171
-225 97 -345 -98 -158 -344 -146 -423 22 -25 54 -28 149 -5 203 52 126 202
180 331 120z"/>
<path d="M230 458 c-77 -30 -169 -123 -198 -201 -29 -78 -29 -141 0 -161 35
-25 61 -1 70 63 11 70 38 121 92 168 59 52 101 63 235 63 122 0 151 8 151 43
0 42 -16 47 -160 46 -112 0 -144 -4 -190 -21z"/>
<path d="M971 295 l-97 -95 -49 50 c-58 59 -98 67 -117 25 -11 -24 -7 -31 67
-105 46 -46 88 -80 99 -80 28 0 246 219 246 247 0 23 -24 53 -42 53 -6 0 -54
-43 -107 -95z"/>
</g>
</svg>
