<?xml version="1.0" standalone="no"?>
<!DOCTYPE svg PUBLIC "-//W3C//DTD SVG 20010904//EN"
 "http://www.w3.org/TR/2001/REC-SVG-20010904/DTD/svg10.dtd">
<svg version="1.0" xmlns="http://www.w3.org/2000/svg"
 width="120.000000pt" height="128.000000pt" viewBox="0 0 120.000000 128.000000"
 preserveAspectRatio="xMidYMid meet">

<g transform="translate(0.000000,128.000000) scale(0.100000,-0.100000)"
fill="#000000" stroke="none">
<path d="M476 1236 c-78 -33 -124 -71 -163 -136 -83 -137 -55 -314 68 -424
186 -167 498 -59 550 192 20 99 -16 214 -93 292 -90 94 -243 126 -362 76z
m247 -104 c35 -20 62 -45 82 -77 27 -44 30 -57 30 -131 0 -75 -3 -86 -30 -125
-45 -64 -113 -102 -190 -107 -110 -7 -187 37 -231 133 -103 219 127 427 339
307z"/>
<path d="M965 498 c-11 -5 -77 -67 -147 -137 l-128 -126 0 -102 c0 -123 0
-123 127 -123 l89 0 142 143 c124 125 142 148 142 176 0 42 -19 78 -67 122
-62 59 -110 74 -158 47z m97 -115 c21 -20 38 -41 38 -47 0 -5 -50 -60 -112
-123 -112 -113 -112 -113 -160 -113 l-48 0 0 47 c0 47 1 49 112 160 62 62 117
113 122 113 6 0 27 -17 48 -37z"/>
<path d="M252 459 c-127 -40 -228 -162 -239 -289 -6 -66 5 -90 41 -90 31 0 46
19 46 55 0 87 62 183 144 221 44 21 66 24 168 24 141 0 168 8 168 49 0 44 -23
51 -152 50 -84 0 -129 -5 -176 -20z"/>
</g>
</svg>
